<?xml version="1.0" encoding="UTF-8"?>
<svg id="Layer_1" data-name="Layer 1" xmlns="http://www.w3.org/2000/svg" viewBox="0 0 387.76 387.76">
  <defs>
    <style>
      .cls-1 {
        fill: #c59169;
      }

      .cls-1, .cls-2 {
        stroke-width: 0px;
      }

      .cls-2 {
        fill: #fedfc2;
      }
    </style>
  </defs>
  <circle class="cls-2" cx="193.88" cy="193.88" r="193.88"/>
  <path class="cls-1" d="m282.09,237.15c-2.34,6.34-5.15,10.87-8.44,13.58-3.08,2.53-7.33,4.06-12.76,4.59-.7-1.58-1.39-3.41-2.08-5.46l-4.46-12.24c18.83-15.76,28.24-35.81,28.24-60.15,0-18.93-6.8-36.03-20.39-51.3-16.27-18.35-38.96-27.53-68.07-27.53-26.94,0-48.38,8.01-64.31,24.03-16.35,16.26-24.53,34.87-24.53,55.8,0,23.21,9.3,42.83,27.92,58.86h0s-5.18,14.25-5.18,14.25c-.46,1.32-.92,2.52-1.39,3.61-5.06-.65-9.05-2.06-11.96-4.21-3.67-2.71-6.63-7.32-8.89-13.83h-5.25l7.44,26.7,2.32,8.34h73.44v-15.77c-12.84-6.75-22.44-14.64-28.77-23.65-2.03-2.89-3.87-5.9-5.52-9.01l37.71-107.38,42.64,120.74c-6.03,6.84-14.54,13.27-25.54,19.3v15.77h73.2l2.32-8.34,7.44-26.7h-5.13Zm-115.11,18.27v1.75l-28.03-1.25-.57-.03c.17-.79.4-1.66.69-2.59l3.28-9.35c6.73,4.15,14.94,7.97,24.63,11.47Zm-23.57-46.14c-3.05-9.66-4.58-20.19-4.58-31.56,0-19.43,4.88-36.08,14.63-49.92,6.89-9.86,15.72-16.21,26.5-19.05l-36.55,100.53Zm63.95-100.58c10.32,2.74,19.11,8.83,26.37,18.28,10.22,13.31,15.33,30.6,15.33,51.87,0,11.47-1.54,22-4.62,31.58l-37.08-101.73Zm13.67,146.72c4.8-1.81,9.23-3.67,13.27-5.56l.95,2.7c.49,1.42.82,2.71.97,3.87l-15.19.62v-1.63Z"/>
</svg>